# xmcd
#
# Track frame offsets:
#	150
#	13370
#	29175
#	40375
#	55995
#	74850
#	92105
#	105825
#	120435
#	131675
#
# Disc length: 1985 seconds
#
# Revision: 0
# Processed by: cddbd v1.4PL0 Copyright (c) Steve Scherf et al.
# Submitted via: dBpowerAMP V4.0
#
DISCID=9307bf0a
DTITLE=The Oak Ridge Boys  - Together
DYEAR=1900
DGENRE=Country
TTITLE0=Whiskey Lady
TTITLE1=Ready To Take My Chances
TTITLE2=Trying To Love Two Women
TTITLE3=Heart Of Mine
TTITLE4=Beautiful You
TTITLE5=Take This Heart
TTITLE6=Love Takes Two
TTITLE7=A Little More Like Me (The Crucifixion)
TTITLE8=I Can't Imagine Laying Down (With Anyone But You)
TTITLE9=Holdin' On To You
EXTD=
EXTT0=
EXTT1=
EXTT2=
EXTT3=
EXTT4=
EXTT5=
EXTT6=
EXTT7=
EXTT8=
EXTT9=
PLAYORDER=
